<svg xmlns="http://www.w3.org/2000/svg" xmlns:xlink="http://www.w3.org/1999/xlink" viewBox="0 0 149.97 32.69"><defs><style type="text/css">.cls-1{fill:url(#Gradiente_sem_nome_9);}.cls-2{fill:url(#Gradiente_sem_nome_9-2);}.cls-3{fill:url(#Gradiente_sem_nome_9-3);}.cls-4{fill:url(#Gradiente_sem_nome_9-4);}.cls-5{fill:url(#Gradiente_sem_nome_9-5);}.cls-6{fill:url(#Gradiente_sem_nome_9-6);}.cls-7{fill:url(#Gradiente_sem_nome_9-7);}.cls-8{fill:url(#Gradiente_sem_nome_9-8);}.cls-9{fill:url(#Gradiente_sem_nome_9-9);}</style><linearGradient id="Gradiente_sem_nome_9" x1="2.18" y1="15" x2="145.57" y2="15" gradientTransform="matrix(1, 0, 0, -1, 0, 34.99)" gradientUnits="userSpaceOnUse"><stop offset="0.12" stop-color="#fe012f"/><stop offset="0.95" stop-color="#fe8e04"/></linearGradient><linearGradient id="Gradiente_sem_nome_9-2" x1="2.3" y1="14.84" x2="145.85" y2="14.84" xlink:href="#Gradiente_sem_nome_9"/><linearGradient id="Gradiente_sem_nome_9-3" x1="2.78" y1="22.16" x2="144.99" y2="22.16" xlink:href="#Gradiente_sem_nome_9"/><linearGradient id="Gradiente_sem_nome_9-4" x1="2.69" y1="15.24" x2="145.55" y2="15.24" xlink:href="#Gradiente_sem_nome_9"/><linearGradient id="Gradiente_sem_nome_9-5" x1="2.72" y1="18.63" x2="145.6" y2="18.63" xlink:href="#Gradiente_sem_nome_9"/><linearGradient id="Gradiente_sem_nome_9-6" x1="2.19" y1="18.64" x2="145.76" y2="18.64" xlink:href="#Gradiente_sem_nome_9"/><linearGradient id="Gradiente_sem_nome_9-7" x1="2.19" y1="18.66" x2="145.76" y2="18.66" xlink:href="#Gradiente_sem_nome_9"/><linearGradient id="Gradiente_sem_nome_9-8" x1="7.62" y1="22.21" x2="143.91" y2="22.21" xlink:href="#Gradiente_sem_nome_9"/><linearGradient id="Gradiente_sem_nome_9-9" x1="2.92" y1="22.25" x2="141.8" y2="22.25" xlink:href="#Gradiente_sem_nome_9"/></defs><g id="Camada_2"><g id="Camada_1-2"><path class="cls-1" d="M8.2,32.69A12,12,0,0,1,.9,30.45c-.73-.6-.87-1.06-.47-1.79.28-.52.53-1.06.79-1.57.46-.92.9-1.08,1.81-.54A10.11,10.11,0,0,0,8.64,28.1C11.85,28,13.06,26,13,23.27A5.75,5.75,0,0,1,8.46,25a8.77,8.77,0,0,1-5-1.65A8.31,8.31,0,0,1,.13,15a8.58,8.58,0,0,1,6.36-7.4,6.67,6.67,0,0,1,6.89,1.77c0-.79.06-1.29.39-1.55a3.19,3.19,0,0,1,1.6-.24c2.56,0,2.5-.1,2.48,1.67,0,3.68,0,9,0,12.63C17.85,26.67,16.34,32.69,8.2,32.69Zm5-16.37A4.23,4.23,0,0,0,9,11.77a4.19,4.19,0,0,0-4.38,4.51c0,2.93,1.85,4.58,4.36,4.6A4.2,4.2,0,0,0,13.18,16.32Z"/><path class="cls-2" d="M132.57,31.44c-.61-.32-.43-1-.14-1.51.1-.2.22-.4.34-.6.82-1.59.82-1.61,2.51-1.21a2.06,2.06,0,0,0,2.5-1,18,18,0,0,0,1.4-2.68S134.6,14,132.51,9.2c-.59-1.35-.53-1.43.92-1.43.93,0,1.85,0,2.78,0a1.12,1.12,0,0,1,1.24.86c1.23,3.14,3.9,10,3.9,10,.51-1.49,1.09-3,1.57-4.36.65-1.87,1.35-3.72,2-5.61a1.18,1.18,0,0,1,1.37-.95c.85.06,1.71,0,2.58,0,1.18,0,1.38.32.94,1.41-1,2.65-2.11,5.31-3.18,8-1.32,3.28-3,7.28-4.3,10.54-.82,2-2.78,4.92-6,4.92A5.77,5.77,0,0,1,132.57,31.44Z"/><path class="cls-3" d="M51.45,9.14A6.82,6.82,0,0,1,56,7.31a8.27,8.27,0,0,1,6.58,3.28c2.47,3,2.49,8.9-.24,11.86a7.77,7.77,0,0,1-11.26.9c-.12-.1,0,1-.24,1.31-.29.56-3.66.52-4,0a1.64,1.64,0,0,1-.18-.84c0-7.34,0-14.9,0-22.24,0-.89.39-1.25,1.25-1.23s1.45.06,2.19,0c1,0,1.27.42,1.27,1.31C51.39,3.81,51.43,9.06,51.45,9.14Zm4.1,2.65c-2.39,0-4.22,1.77-4.28,4.53a4.29,4.29,0,1,0,8.56.06,4.26,4.26,0,0,0-4.28-4.59Z"/><path class="cls-4" d="M90.94,23.5c0,2.47,0,4.74,0,7,0,1.67,0,1.67-1.73,1.67-.6,0-1.2,0-1.79,0-.78,0-1-.36-1-1.08V8.78c0-.73.28-1.11,1.06-1,.49,0,1.39,0,1.89,0,1.37,0,1.29.4,1.29,1.71,4.79-4.55,11.86-1.13,13.13,4.7a9.12,9.12,0,0,1-4.62,10.38A6.88,6.88,0,0,1,92,24.18C91.67,24,91.42,23.8,90.94,23.5Zm-.08-7.2a4.37,4.37,0,0,0,4.29,4.64,4.27,4.27,0,0,0,4.32-4.6c0-2.58-1.41-4.45-4.12-4.55a4.26,4.26,0,0,0-4.49,4.51Z"/><path class="cls-5" d="M126.13,9.34c.22-1.61,0-1.63,1.77-1.61.54,0,1,0,1.59,0,.89-.1,1.17.4,1.17,1.17V23.82c0,.84-.36,1.3-1.27,1.22-.46,0-.94,0-1.39,0-1.59,0-1.91,0-1.91-1.75a6.3,6.3,0,0,1-4.6,2.08,7.15,7.15,0,0,1-5.25-1.85A9.32,9.32,0,0,1,117,8.64a7,7,0,0,1,8.35.2Zm-8.56,7c0,2.71,1.79,4.72,4.24,4.66a4.32,4.32,0,0,0,4.3-4.64,4.39,4.39,0,0,0-4.34-4.59A4.32,4.32,0,0,0,117.57,16.3Z"/><path class="cls-6" d="M44.67,16.3a8.94,8.94,0,1,1-17.87-.16,8.93,8.93,0,0,1,9-8.81A8.82,8.82,0,0,1,44.67,16.3ZM40,16.5a4.34,4.34,0,1,0-8.67-.36A4.53,4.53,0,0,0,35.64,21,4.4,4.4,0,0,0,40,16.5Z"/><path class="cls-7" d="M66.33,16.28a8.9,8.9,0,1,1,17.8.26,8.9,8.9,0,0,1-17.8-.26Zm13.21,0a4.3,4.3,0,0,0-4.48-4.53,4.42,4.42,0,0,0-4.21,4.91A4.47,4.47,0,0,0,75.34,21,4.38,4.38,0,0,0,79.54,16.3Z"/><path class="cls-8" d="M110.79,12.8c0,3.68,0,7.38,0,11.06,0,.86-.32,1.2-1.15,1.16a20,20,0,0,0-2.19,0c-1,.06-1.31-.4-1.31-1.3V2c0-1.25.17-1.43,1.41-1.45.69,0,1.39,0,2.09,0,.85,0,1.15.34,1.15,1.17C110.77,5.42,110.79,9.12,110.79,12.8Z"/><path class="cls-9" d="M20.1,12.78V1.42c0-1.35.54-1.81,2.21-1.07,1.93.84,2.43,1,2.43,2.61,0,6.14,0,13-.06,19.31,0,1.23.06,1.77-1.46,2.45-.31.14-.93.46-1.39.63-.91.38-1.75,0-1.73-1.33,0-2.66,0-5.33,0-8C20.08,15,20.08,13.88,20.1,12.78Z"/></g></g></svg>