<svg class="product-logo-icon" xmlns="http://www.w3.org/2000/svg" width="588" height="128" fill="none" viewBox="0 0 588 128" aria-hidden="true"><g clip-path="url(#clip0)"><path fill="url(#paint0_linear)" d="M572.208 29.626c-2.218 0-3.545.892-4.141 2.812l-13.894 40.444-15.968-40.444c-.739-1.928-1.924-2.812-3.99-2.812h-13.449c-2.662 0-3.696 1.633-2.511 4.15L545.748 96l-2.218 4.74c-3.402 7.408-6.795 10.22-10.197 10.22-1.924 0-3.99-.589-5.914-1.481-2.066-1.036-3.847-.741-4.88 1.33l-3.847 7.408c-.891 1.777-.74 3.553 1.033 4.892 3.545 2.812 7.837 4.891 13.751 4.891 13.154 0 20.84-9.774 27.938-27.85l26.166-66.374c1.033-2.517.151-4.15-2.512-4.15h-12.86zM17.59 63.848c0-10.96 7.837-18.226 17.144-18.226 9.316 0 17.002 7.257 17.002 18.227 0 10.818-7.686 18.218-17.002 18.218-9.307.008-17.144-7.4-17.144-18.218zM0 64c0 20.146 14.633 34.071 33.113 34.071 8.274 0 14.633-3.856 18.329-7.855-.152 14.077-7.544 20.441-20.253 20.441-6.795 0-13.154-2.071-20.546-6.811-1.924-1.33-4.141-.892-5.175 1.187l-4.435 8.739C0 115.843.294 117.771 2.36 119.11c9.165 5.927 19.959 8.89 29.266 8.89 24.394 0 37.842-13.184 37.842-43.56V33.188c0-2.222-1.327-3.553-3.545-3.553H55.877c-2.218 0-3.545 1.33-3.545 3.553v3.856c-3.99-4.892-11.382-8.596-18.774-8.596C15.523 28.447 0 43.854 0 64zm122.833 0c0-10.515 7.686-18.227 17.145-18.227 9.458 0 17.144 7.703 17.144 18.227 0 10.515-7.686 18.218-17.144 18.218-9.45 0-17.145-7.703-17.145-18.218zm-17.883 0c0 20.593 15.666 35.553 35.036 35.553 19.068 0 35.036-14.96 35.036-35.553 0-20.593-15.666-35.553-35.036-35.553-19.068 0-35.036 14.96-35.036 35.553zm172.947 0c0-10.515 7.686-18.227 17.145-18.227 9.458 0 17.144 7.703 17.144 18.227 0 10.515-7.686 18.218-17.144 18.218-9.459 0-17.145-7.703-17.145-18.218zm-17.883 0c0 20.593 15.666 35.553 35.036 35.553 19.068 0 35.036-14.96 35.036-35.553 0-20.593-15.666-35.553-35.036-35.553-19.068 0-35.036 14.96-35.036 35.553zm96.079 0c0-10.818 7.686-18.227 16.85-18.227 9.165 0 16.851 7.409 16.851 18.227 0 10.961-7.686 18.218-16.851 18.218-9.164 0-16.85-7.257-16.85-18.218zm-.739-26.814v-3.999c0-2.222-1.328-3.553-3.545-3.553h-9.904c-2.217 0-3.545 1.33-3.545 3.553v90.073c0 2.223 1.328 3.553 3.545 3.553h10.937c2.218 0 3.545-1.33 3.545-3.553V91.706c4.284 4.445 11.231 7.855 18.48 7.855 18.035 0 32.819-15.406 32.819-35.553 0-20.146-15.078-35.552-32.668-35.552-8.282-.009-15.229 3.544-19.664 8.73zM460.303 64c0-10.961 7.686-18.227 16.851-18.227 9.164 0 16.85 7.257 16.85 18.227 0 10.818-7.686 18.218-16.85 18.218-9.156 0-16.851-7.408-16.851-18.218zm-17.883 0c0 20.146 15.078 35.553 32.667 35.553 8.274 0 15.229-3.553 19.656-8.739v3.999c0 2.222 1.327 3.553 3.545 3.553h9.912c2.218 0 3.545-1.33 3.545-3.553V33.187c0-2.222-1.327-3.553-3.545-3.553h-9.904c-2.217 0-3.544 1.33-3.544 3.553v4.294c-4.142-5.035-11.676-9.034-19.514-9.034-18.034 0-32.818 15.407-32.818 35.553zm-241.383 0c0-10.818 7.686-18.227 16.851-18.227 9.164 0 16.85 7.409 16.85 18.227 0 10.961-7.686 18.218-16.85 18.218-9.165 0-16.851-7.257-16.851-18.218zM186.841 1.33c-2.217 0-3.545 1.33-3.545 3.553v89.93c0 2.222 1.328 3.553 3.545 3.553h9.904c2.217 0 3.545-1.33 3.545-3.553v-3.856c4.284 4.892 12.272 8.596 20.101 8.596 17.295 0 32.222-15.701 32.222-35.553 0-20.146-15.078-35.553-32.667-35.553-7.098 0-14.045 3.115-18.623 7.855V4.892c0-2.223-1.327-3.553-3.545-3.553h-10.937V1.33zm232.672 0c-2.218 0-3.545 1.33-3.545 3.553v89.93c0 2.222 1.327 3.553 3.545 3.553h11.088c2.217 0 3.545-1.33 3.545-3.553V4.891c0-2.222-1.328-3.552-3.545-3.552h-11.088V1.33zM78.641 5.48v88.744c0 4.74 2.957 6.667 7.24 4.74l5.62-2.518c3.545-1.633 5.175-3.999 5.175-7.855V11.113c0-3.856-1.63-6.222-5.175-7.855L85.881.741C84.774.244 83.749 0 82.85 0c-2.587 0-4.208 1.97-4.208 5.48z"></path></g><defs><linearGradient id="paint0_linear" x1="255.571" x2="426.433" y1="35.427" y2="205.906" gradientUnits="userSpaceOnUse"><stop stop-color="#FB0234"></stop><stop offset="1" stop-color="#FF9101"></stop></linearGradient><clipPath id="clip0"><path fill="#fff" d="M0 0H588V128H0z"></path></clipPath></defs></svg>